<?xml version="1.0" encoding="utf-8"?>
<!-- Generator: Adobe Illustrator 19.2.1, SVG Export Plug-In . SVG Version: 6.00 Build 0)  -->
<svg version="1.1" id="Layer_1" xmlns="http://www.w3.org/2000/svg" xmlns:xlink="http://www.w3.org/1999/xlink" x="0px" y="0px"
	 viewBox="0 0 500 408" style="enable-background:new 0 0 500 408;" xml:space="preserve">
<g>
	<g>
		<g>
			<g>
				<path d="M500,33.4c0,8.9-3.5,17.3-9.8,23.7l-189.9,190c-27.7,27.7-72.8,27.7-100.5,0l-190-190C-2.8,44.5-2.8,22.4,9.8,9.8
					C16.1,3.4,24.5,0,33.4,0c8.9,0,17.3,3.4,23.6,9.8l190,190c1.5,1.6,4.4,1.6,5.9,0l189.9-190c6.3-6.4,14.7-9.8,23.7-9.8
					c8.9,0,17.3,3.4,23.6,9.8C496.5,16.1,500,24.5,500,33.4z M16.7,33.4c0,4.5,1.7,8.7,4.9,11.8l189.9,189.9
					c21.2,21.2,55.6,21.2,76.9,0L478.4,45.2c6.3-6.3,6.3-17.3,0-23.6c-3.2-3.2-7.4-4.9-11.8-4.9c-4.5,0-8.7,1.7-11.9,4.9
					L264.8,211.6c-8,8-21.6,8-29.5,0L45.3,21.6c-3.2-3.2-7.4-4.9-11.8-4.9c-4.5,0-8.7,1.7-11.8,4.9C18.5,24.8,16.7,29,16.7,33.4z"/>
			</g>
		</g>
	</g>
	<g>
		<g>
			<path d="M500,374.5c0,18.4-15,33.4-33.4,33.4L33.4,408C15,408,0,393,0,374.5c0-18.4,15-33.4,33.4-33.4l433.1,0
				C485,341.1,500,356.1,500,374.5z M16.7,374.5c0,9.2,7.5,16.7,16.7,16.7l433.1,0c9.2,0,16.7-7.5,16.7-16.7
				c0-9.2-7.5-16.8-16.7-16.8l-433.1,0.1C24.2,357.8,16.7,365.3,16.7,374.5z"/>
		</g>
	</g>
</g>
</svg>
